<svg viewBox="0 0 200.01 157.02" xmlns="http://www.w3.org/2000/svg" xmlns:xlink="http://www.w3.org/1999/xlink"><clipPath id="a" transform="translate(-320.97 -219.47)"><path d="m320.97 219.47h200.01v157.02h-200.01z"/></clipPath><g clip-path="url(#a)"><path d="m421.05 262.41c0 1.55-.15 3.76-.22 5.33a1.68 1.68 0 0 1 -.52 1.08 1.55 1.55 0 0 1 -1.17.36 31.07 31.07 0 0 0 -6.64-1 6.61 6.61 0 0 0 -4.25 1.2 3.93 3.93 0 0 0 -1.39 3.21 4.56 4.56 0 0 0 2.38 4c1.46.76 2.7 1.21 5.39 2.33a12.8 12.8 0 0 1 7.37 11.66c-.06 4.3-.94 7-4 9.44a22 22 0 0 1 -5.26 3.05 4.46 4.46 0 0 1 -.55.25c-3.43 1.34-3.81 1.8-4.21 2.22a4.13 4.13 0 0 0 -1.17 3.31 4.06 4.06 0 0 0 2.75 3.75c2.52 1.12 3.49 1.46 5.67 2.53a11.57 11.57 0 0 1 6.77 11.24c-.12 3.65-1.05 6.71-3.73 9.19a20.25 20.25 0 0 1 -7.66 4.08c-1.74.81-3.44 2.1-3.55 4.7-.17 4.09 2.08 5.09 7.22 7.29 2.72 1.44 4.43 1.84 6.38 4.56a11.4 11.4 0 0 1 1.38 6.74c-.16 4-1.3 6.49-3.63 8.78-3 3-8.08 4.82-13.32 4.78a27 27 0 0 1 -6.11-.83 2.58 2.58 0 0 1 -1-.54 1.74 1.74 0 0 1 -.41-1.06c0-2.21 0-3.92 0-5.2a2.54 2.54 0 0 1 .56-1.3 1.61 1.61 0 0 1 1.6-.41 26.5 26.5 0 0 0 6.06.66c3.94-.26 5.47-1 6.74-2.46a4 4 0 0 0 .16-4.65c-.91-1.51-5.78-2.68-8-4a14.88 14.88 0 0 1 -5.14-4.29 13 13 0 0 1 -2.33-8.06 15.55 15.55 0 0 1 .79-4.61 11.47 11.47 0 0 1 2.3-3.54 14 14 0 0 1 5.67-3.43c1.54-.65 3-1.22 3.52-1.42 2.91-1 4-2.69 3.63-5.26s-3.25-2.93-5.05-3.69c-5.07-1.83-7.65-4.33-8.77-6.09a13.5 13.5 0 0 1 .23-14.79 13.25 13.25 0 0 1 7.09-5.3 18.19 18.19 0 0 0 4.43-2.15 3.62 3.62 0 0 0 1.49-2.54c.1-2.19-.94-3.26-2.77-4.12-1.51-.81-3.17-1.4-5.27-2.37a14.21 14.21 0 0 1 -5.26-3.68c-1.52-1.68-2.31-4.31-2.39-7.88a13 13 0 0 1 4-9.69q4-3.9 12.05-4.05a34.7 34.7 0 0 1 6.73.93h.17a2.19 2.19 0 0 1 .75.36 1.69 1.69 0 0 1 .52 1.3m67.39 52.67a2.68 2.68 0 0 1 -.39-1.24v-62.18h-6.78a1.9 1.9 0 0 1 -1.24-.37 2.24 2.24 0 0 1 -.57-1.21v-5.17a2.32 2.32 0 0 1 .49-1.28 2.11 2.11 0 0 1 1.13-.45h6.94 9.22c0 1 0 2.28-.12 3.7s-.23 2.72-.41 3.9a16 16 0 0 1 5.06-6.15 13.45 13.45 0 0 1 7.89-2.4q6.31.15 8.84 4a16.92 16.92 0 0 1 2.44 9.69v58a2.3 2.3 0 0 1 -.32 1.2 1.82 1.82 0 0 1 -1.06.64h-6.74a1.75 1.75 0 0 1 -1.17-.57 2.74 2.74 0 0 1 -.39-1.2v-55.39a10.75 10.75 0 0 0 -1-5.27 3.87 3.87 0 0 0 -3.67-1.9c-2.53.11-4.63 1.49-6.27 4.14a18.67 18.67 0 0 0 -2.57 9.77v48.29a2.76 2.76 0 0 1 -.32 1.45 1.83 1.83 0 0 1 -1.09.65h-6.76a2 2 0 0 1 -1.19-.58m-20.25-79.72a8.22 8.22 0 0 0 -1.94-5.77 7.08 7.08 0 0 0 -5.37-2.09 7.26 7.26 0 0 0 -5.48 2.17 8 8 0 0 0 -2 5.61 7.85 7.85 0 0 0 2 5.62 7.33 7.33 0 0 0 5.51 2.07 7.19 7.19 0 0 0 5.31-2 7.76 7.76 0 0 0 2-5.59m-5.83 42.19a11 11 0 0 0 6.82-2.2 4.58 4.58 0 0 0 1.28-1.28 5.82 5.82 0 0 0 1.31-3.63c0-3.92-4.21-7.11-9.41-7.11s-9.41 3.19-9.41 7.11a5.62 5.62 0 0 0 .75 2.78 5.41 5.41 0 0 0 1.67 2.08 7.16 7.16 0 0 0 1 .62 11.36 11.36 0 0 0 6 1.63m-9.5 61c0 3.93 4.21 7.11 9.41 7.11s9.41-3.18 9.41-7.11-4.22-7.11-9.41-7.11-9.41 3.18-9.41 7.11m.25-33.92c0 3.93 4.22 7.11 9.41 7.11s9.41-3.18 9.41-7.11-4.21-7.11-9.41-7.11-9.41 3.18-9.41 7.11m14.78-84.18h11.46a1.77 1.77 0 0 1 .87.41 2.09 2.09 0 0 1 .47 1.11v5.54a2.32 2.32 0 0 1 -.57 1.23 1.55 1.55 0 0 1 -.84.35h-3.69a8.4 8.4 0 0 1 1.9 5.7q0 7.22-4.25 11.43t-12.14 4.3a16.31 16.31 0 0 1 -3.73-.35 3.15 3.15 0 0 0 -1.83 2.76 2.06 2.06 0 0 0 1.28 2.09 11.69 11.69 0 0 0 4.59.59c4.09.23 6.22.43 6.22.43 5.85.7 7.45 1.61 9.93 4.28s3.28 7.81 3 11.81a12.48 12.48 0 0 1 -2.33 6.73c-2 2.61-4.11 3.84-7.28 5a23.3 23.3 0 0 1 -11.51 1.28c-.92-.14-1.85-.3-2.76-.49a2.87 2.87 0 0 0 -1.17 2.31 2.05 2.05 0 0 0 1.28 2.08 11.84 11.84 0 0 0 4.59.6c4.09.22 6.22.43 6.22.43 5.67.41 7.8 2.21 9.93 4.28 2.67 2.59 3.55 7.84 3 11.81a13.14 13.14 0 0 1 -2.47 6.65c-1.84 2.39-4.11 3.81-7.94 5.22a26.65 26.65 0 0 1 -10.6 1 13.78 13.78 0 0 1 -3.13-.43 2.88 2.88 0 0 0 -1.11 2.27 2 2 0 0 0 1.27 2.08 11.93 11.93 0 0 0 4.6.6c4.09.22 6.22.43 6.22.43 5.66.41 7.79 2.21 9.92 4.28 2.67 2.59 3.56 7.84 3 11.81-.43 3-.93 4.67-2.84 6.87a15.66 15.66 0 0 1 -7.58 5 28.34 28.34 0 0 1 -10.7 1.25 17.93 17.93 0 0 1 -12-4.56 11.85 11.85 0 0 1 -4-9.19 10.19 10.19 0 0 1 1.39-5.54 11.38 11.38 0 0 1 4.14-3.79 7.21 7.21 0 0 1 -3.73-6.56 8.85 8.85 0 0 1 1.25-4.46 7 7 0 0 1 3.25-3 10.11 10.11 0 0 1 -.87-.58 7.18 7.18 0 0 1 -1.21-.83 11.81 11.81 0 0 1 -4-9.19 10.19 10.19 0 0 1 1.39-5.5 11.38 11.38 0 0 1 4.14-3.79 7.22 7.22 0 0 1 -3.74-6.56 9 9 0 0 1 1.25-4.46 7.12 7.12 0 0 1 3.17-2.94 10.69 10.69 0 0 1 -2.2-1.56 11.81 11.81 0 0 1 -4-9.18 10 10 0 0 1 1.39-5.54 11.38 11.38 0 0 1 4.14-3.79 7.21 7.21 0 0 1 -3.74-6.57 8.87 8.87 0 0 1 1.25-4.46 7.15 7.15 0 0 1 3.25-3 10.37 10.37 0 0 1 -4.22-4.84 17.28 17.28 0 0 1 -1.42-7.17 17.86 17.86 0 0 1 2-8.35 14.89 14.89 0 0 1 5.79-6 18.49 18.49 0 0 1 9.39-2.3 20.6 20.6 0 0 1 3.45.28c1.07.18 2.12.4 3.18.67m-29.62 10.37a7.07 7.07 0 0 1 -1.79 4.76 5.76 5.76 0 0 1 -4.31 2 5.64 5.64 0 0 1 -4.26-2 7.15 7.15 0 0 1 -1.76-4.76 7 7 0 0 1 1.76-4.69 5.71 5.71 0 0 1 4.26-2 5.84 5.84 0 0 1 4.31 1.94 6.89 6.89 0 0 1 1.79 4.72m-10.56 12.84a1.81 1.81 0 0 1 1.18-.56h6.78a1.8 1.8 0 0 1 1.07.64 2.41 2.41 0 0 1 .32 1.29v39.25a2.14 2.14 0 0 1 -.31 1.12 1.87 1.87 0 0 1 -1 .64h-6.88a1.82 1.82 0 0 1 -1.12-.56 2.91 2.91 0 0 1 -.4-1.28v-39.26a2.77 2.77 0 0 1 .4-1.28m-106.38-22.34a1.87 1.87 0 0 1 1.19-.57h6.78a1.93 1.93 0 0 1 1.07.65 2.39 2.39 0 0 1 .32 1.24v18.73c0 1.34-.12 7.78-.2 8.17a11.07 11.07 0 0 1 4.5-5.19 13.39 13.39 0 0 1 7.59-2.2q6.3.15 8.84 4a16.92 16.92 0 0 1 2.44 9.69v58.1a2.45 2.45 0 0 1 -.32 1.19 1.8 1.8 0 0 1 -1 .62h-6.91a1.66 1.66 0 0 1 -1.06-.55 2.69 2.69 0 0 1 -.4-1.25v-55.39a10.86 10.86 0 0 0 -1-5.27 3.88 3.88 0 0 0 -3.67-1.9q-3.81.17-6.28 4.14a18.67 18.67 0 0 0 -2.56 9.77v48.63a2.48 2.48 0 0 1 -.32 1.2 1.8 1.8 0 0 1 -1 .62h-7a1.71 1.71 0 0 1 -1.07-.55 2.78 2.78 0 0 1 -.39-1.27v-91.33a2.83 2.83 0 0 1 .39-1.28m71.89 40c0 1.06 0 2.21-.14 3.45a2.48 2.48 0 0 1 -.37 1 1.86 1.86 0 0 1 -1.22.57h-21.21a.85.85 0 0 0 -.72.36 3.7 3.7 0 0 0 -.16.86c-.49 8.55 4.74 11.32 10.39 10.85a39.83 39.83 0 0 0 5.85-.84 22.63 22.63 0 0 0 3.44-1.1 2.42 2.42 0 0 1 1.19-.06 1.61 1.61 0 0 1 .94 1.13l.52 4.93a2.42 2.42 0 0 1 -.23 1.32 2.63 2.63 0 0 1 -1 .94 31.86 31.86 0 0 1 -5.09 1.47 35.31 35.31 0 0 1 -7 .7q-9.07 0-13.89-5.3t-4.86-16.64a31.43 31.43 0 0 1 2.08-11.76 18.31 18.31 0 0 1 6-8.06 16 16 0 0 1 9.66-3 15.24 15.24 0 0 1 9 2.61 15 15 0 0 1 5.21 6.87 26.36 26.36 0 0 1 1.67 9.7m-10.12-2.41h.23a.93.93 0 0 0 .55-.21 1.38 1.38 0 0 0 .28-1 9.83 9.83 0 0 0 -1.86-5.32 6.55 6.55 0 0 0 -5.23-2.14 6.4 6.4 0 0 0 -5 2.33 10.39 10.39 0 0 0 -2.2 5 1.43 1.43 0 0 0 .12.88 1.06 1.06 0 0 0 .88.37z" fill="#1d1d1b" transform="translate(-320.97 -219.47)"/></g></svg>